<svg xmlns="http://www.w3.org/2000/svg" width="1200" height="630" viewBox="0 0 1200 630">
  <defs>
    <linearGradient id="bg" x1="0%" y1="0%" x2="100%" y2="100%">
      <stop offset="0%" style="stop-color:#713f12"/>
      <stop offset="100%" style="stop-color:#854d0e"/>
    </linearGradient>
    <radialGradient id="glow" cx="42%" cy="50%" r="40%">
      <stop offset="0%" style="stop-color:white;stop-opacity:0.06"/>
      <stop offset="100%" style="stop-color:white;stop-opacity:0"/>
    </radialGradient>
  </defs>
  <rect width="1200" height="630" fill="url(#bg)"/>
  <circle cx="500" cy="315" r="280" fill="url(#glow)"/>
  <!-- Grid -->
  <g opacity="0.08" stroke="white" stroke-width="0.5">
    <line x1="0" y1="105" x2="1200" y2="105"/><line x1="0" y1="210" x2="1200" y2="210"/>
    <line x1="0" y1="315" x2="1200" y2="315"/><line x1="0" y1="420" x2="1200" y2="420"/>
    <line x1="0" y1="525" x2="1200" y2="525"/>
    <line x1="200" y1="0" x2="200" y2="630"/><line x1="400" y1="0" x2="400" y2="630"/>
    <line x1="600" y1="0" x2="600" y2="630"/><line x1="800" y1="0" x2="800" y2="630"/>
    <line x1="1000" y1="0" x2="1000" y2="630"/>
  </g>
  <!-- Calendar -->
  <g transform="translate(450,145)">
    <rect x="0" y="0" width="300" height="270" rx="10" fill="white" opacity="0.05"/>
    <rect x="0" y="0" width="300" height="270" rx="10" fill="none" stroke="white" stroke-width="2.5"/>
    <rect x="0" y="0" width="300" height="50" rx="10" fill="white" opacity="0.08"/>
    <line x1="0" y1="50" x2="300" y2="50" stroke="white" stroke-width="2"/>
    <!-- Calendar pins -->
    <line x1="85" y1="-12" x2="85" y2="18" stroke="white" stroke-width="3" stroke-linecap="round"/>
    <line x1="215" y1="-12" x2="215" y2="18" stroke="white" stroke-width="3" stroke-linecap="round"/>
    <!-- Day cells - 5 rows x 7 cols -->
    <g transform="translate(14,62)">
      <rect x="0" y="0" width="34" height="30" rx="4" fill="none" stroke="white" stroke-width="1" opacity="0.25"/>
      <rect x="40" y="0" width="34" height="30" rx="4" fill="none" stroke="white" stroke-width="1" opacity="0.25"/>
      <rect x="80" y="0" width="34" height="30" rx="4" fill="none" stroke="white" stroke-width="1" opacity="0.25"/>
      <rect x="120" y="0" width="34" height="30" rx="4" fill="none" stroke="white" stroke-width="1" opacity="0.25"/>
      <rect x="160" y="0" width="34" height="30" rx="4" fill="none" stroke="white" stroke-width="1" opacity="0.25"/>
      <rect x="200" y="0" width="34" height="30" rx="4" fill="none" stroke="white" stroke-width="1" opacity="0.25"/>
      <rect x="240" y="0" width="34" height="30" rx="4" fill="none" stroke="white" stroke-width="1" opacity="0.25"/>

      <rect x="0" y="38" width="34" height="30" rx="4" fill="none" stroke="white" stroke-width="1" opacity="0.25"/>
      <rect x="40" y="38" width="34" height="30" rx="4" fill="none" stroke="white" stroke-width="1" opacity="0.25"/>
      <rect x="80" y="38" width="34" height="30" rx="4" fill="#D42918" opacity="0.4"/>
      <rect x="80" y="38" width="34" height="30" rx="4" fill="none" stroke="white" stroke-width="1.5"/>
      <rect x="120" y="38" width="34" height="30" rx="4" fill="none" stroke="white" stroke-width="1" opacity="0.25"/>
      <rect x="160" y="38" width="34" height="30" rx="4" fill="none" stroke="white" stroke-width="1" opacity="0.25"/>
      <rect x="200" y="38" width="34" height="30" rx="4" fill="none" stroke="white" stroke-width="1" opacity="0.25"/>
      <rect x="240" y="38" width="34" height="30" rx="4" fill="none" stroke="white" stroke-width="1" opacity="0.25"/>

      <rect x="0" y="76" width="34" height="30" rx="4" fill="none" stroke="white" stroke-width="1" opacity="0.25"/>
      <rect x="40" y="76" width="34" height="30" rx="4" fill="none" stroke="white" stroke-width="1" opacity="0.25"/>
      <rect x="80" y="76" width="34" height="30" rx="4" fill="none" stroke="white" stroke-width="1" opacity="0.25"/>
      <rect x="120" y="76" width="34" height="30" rx="4" fill="#D42918" opacity="0.4"/>
      <rect x="120" y="76" width="34" height="30" rx="4" fill="none" stroke="white" stroke-width="1.5"/>
      <rect x="160" y="76" width="34" height="30" rx="4" fill="none" stroke="white" stroke-width="1" opacity="0.25"/>
      <rect x="200" y="76" width="34" height="30" rx="4" fill="none" stroke="white" stroke-width="1" opacity="0.25"/>
      <rect x="240" y="76" width="34" height="30" rx="4" fill="none" stroke="white" stroke-width="1" opacity="0.25"/>

      <rect x="0" y="114" width="34" height="30" rx="4" fill="none" stroke="white" stroke-width="1" opacity="0.25"/>
      <rect x="40" y="114" width="34" height="30" rx="4" fill="none" stroke="white" stroke-width="1" opacity="0.25"/>
      <rect x="80" y="114" width="34" height="30" rx="4" fill="none" stroke="white" stroke-width="1" opacity="0.25"/>
      <rect x="120" y="114" width="34" height="30" rx="4" fill="none" stroke="white" stroke-width="1" opacity="0.25"/>
      <rect x="160" y="114" width="34" height="30" rx="4" fill="none" stroke="white" stroke-width="1" opacity="0.25"/>
      <rect x="200" y="114" width="34" height="30" rx="4" fill="none" stroke="white" stroke-width="1" opacity="0.25"/>
      <rect x="240" y="114" width="34" height="30" rx="4" fill="none" stroke="white" stroke-width="1" opacity="0.25"/>
    </g>
  </g>
  <!-- Big checkmark -->
  <g transform="translate(820,300)">
    <circle cx="0" cy="0" r="50" fill="#D42918" opacity="0.25"/>
    <circle cx="0" cy="0" r="50" fill="none" stroke="white" stroke-width="2.5"/>
    <path d="M-22 0 L-8 14 L22 -14" fill="none" stroke="white" stroke-width="4" stroke-linecap="round" stroke-linejoin="round"/>
  </g>
  <!-- 73% text hint -->
  <g transform="translate(820,400)">
    <text x="0" y="0" fill="white" font-family="sans-serif" font-size="28" font-weight="bold" text-anchor="middle" opacity="0.3">-73%</text>
  </g>
  <rect x="0" y="0" width="5" height="630" fill="#D42918"/>
</svg>